<?xml version="1.0" encoding="UTF-8"?>
<!DOCTYPE svg PUBLIC "-//W3C//DTD SVG 1.1//EN" "http://www.w3.org/Graphics/SVG/1.1/DTD/svg11.dtd">
<!-- Creator: CorelDRAW 2019 (64-Bit) -->
<svg xmlns="http://www.w3.org/2000/svg" xml:space="preserve" width="42.3332mm" height="21.1666mm" version="1.1" style="shape-rendering:geometricPrecision; text-rendering:geometricPrecision; image-rendering:optimizeQuality; fill-rule:evenodd; clip-rule:evenodd"
viewBox="0 0 4233.32 2116.66"
 xmlns:xlink="http://www.w3.org/1999/xlink"
 xmlns:xodm="http://www.corel.com/coreldraw/odm/2003"
 aria-hidden="true"
 focusable="false"
 data-prefix="fas"
 data-icon="arrow-circle-right"
 role="img">
 <defs>
  <style type="text/css">
   <![CDATA[
    .fil0 {fill:black}
    .fil1 {fill:black;fill-rule:nonzero}
   ]]>
  </style>
 </defs>
 <g id="Layer_x0020_1">
  <metadata id="CorelCorpID_0Corel-Layer"/>
  <g id="_2877954034304">
   <path class="fil0" d="M3427.45 530.16c271,0 490.57,219.57 490.57,490.57 0,271 -219.57,490.57 -490.57,490.57 -271,0 -490.57,-219.57 -490.57,-490.57 0,-271 219.57,-490.57 490.57,-490.57zm-57.17 284.06l149.35 143.21 -361.2 0c-26.31,0 -47.48,21.17 -47.48,47.48l0 31.65c0,26.31 21.17,47.47 47.48,47.47l361.2 0 -149.35 143.22c-19.19,18.39 -19.58,49.05 -0.79,67.84l21.76 21.57c18.59,18.59 48.66,18.59 67.06,0l262.49 -262.3c18.59,-18.59 18.59,-48.66 0,-67.06l-262.49 -262.69c-18.6,-18.59 -48.66,-18.59 -67.06,0l-21.76 21.56c-18.79,18.99 -18.4,49.65 0.79,68.05z"/>
  </g>
  <path class="fil1" d="M520.4 1335.39c13.67,3.73 25.27,6.22 34.79,7.88 9.53,1.65 18.03,2.48 25.69,2.48 37.29,0 68.37,-15.12 93.43,-45.57 25.06,-30.25 37.49,-68.57 37.49,-115.18 0,-42.05 -10.35,-75.81 -31.27,-101.5 -20.72,-25.69 -47.65,-38.53 -80.8,-38.53 -9.32,0 -20.5,2.28 -33.56,7.04 -13.25,4.56 -28.37,11.81 -45.77,21.55l0 261.83zm-190.17 152.05l0 -892.4 190.17 -26.1 0 369.34c24.23,-12.42 47.64,-21.75 70.01,-28.16 22.58,-6.22 44.33,-9.33 65.25,-9.33 74.37,0 134.65,26.31 180.85,79.13 46.19,52.83 69.19,121.6 69.19,206.53 0,89.91 -27.35,162.2 -82.25,217.3 -54.68,54.9 -126.98,82.45 -216.26,82.45 -11.39,0 -24.03,-0.62 -38.32,-2.07 -14.09,-1.45 -30.04,-3.52 -47.85,-6.42l-69.19 -16.37 -121.6 26.1zm877.7 -26.1l-192.66 0 0 -866.3 192.66 -26.1 0 892.4zm300.99 -273.44c0,46.61 9.94,84.11 30.03,112.48 20.1,28.59 45.78,42.89 76.86,42.89 31.28,0 56.75,-14.3 76.85,-43.09 20.09,-28.8 30.03,-66.08 30.03,-112.28 0,-45.78 -9.94,-83.06 -30.03,-112.07 -20.1,-28.79 -45.57,-43.29 -76.85,-43.29 -31.08,0 -56.76,14.29 -76.86,43.09 -20.09,28.79 -30.03,66.08 -30.03,112.27zm-193.89 -0.41c0,-86.8 28.38,-158.47 85.13,-214.81 56.97,-56.15 128.64,-84.31 215.65,-84.31 87.41,0 159.5,28.16 216.47,84.31 56.97,56.34 85.55,128.01 85.55,214.81 0,87 -28.58,158.88 -85.55,215.23 -56.97,56.55 -129.06,84.72 -216.47,84.72 -86.59,0 -158.26,-28.17 -215.23,-84.72 -56.97,-56.35 -85.55,-128.23 -85.55,-215.23zm1487.54 -214.61l0 427.77c-59.03,29.62 -116.63,51.78 -172.56,66.7 -56.13,15.12 -110.41,22.58 -163.02,22.58 -134.03,0 -245.06,-44.13 -333.52,-132.58 -88.45,-88.45 -132.57,-200.11 -132.57,-334.75 0,-136.1 44.75,-248.58 134.44,-337.45 89.69,-89.08 203.01,-133.61 340.35,-133.61 51.79,0 101.09,7.04 148.11,21.33 23.41,7.04 46.4,15.95 68.95,26.67 22.56,10.72 44.67,23.26 66.32,37.55l-22.58 220.2c-40.81,-41.22 -81.41,-71.47 -121.8,-90.53 -40.61,-19.26 -83.07,-28.79 -127.61,-28.79 -78.92,0 -144.18,26.31 -195.96,79.13 -51.79,52.83 -77.68,118.91 -77.68,198.04 0,83.48 25.06,151.43 74.98,204.25 49.93,52.82 114.35,79.13 193.07,79.13 18.23,0 36.66,-1.66 55.31,-4.76 18.64,-3.32 37.9,-7.87 58.21,-14.09l0 -127.81 -166.55 0 0 -178.98 374.11 0z"/>
 </g>
</svg>
